# Blender v3.3.1 OBJ File: 'artifact0.blend'
# www.blender.org
mtllib artifact0.blend.mtl
o Cylinder.001
v 1.062559 -0.840311 0.236411
v 1.959888 -0.135117 0.183859
v 0.874717 -0.783410 0.033732
v 1.922022 -0.123339 -0.095477
v 1.001290 -0.821254 -0.215564
v 1.655954 -0.043048 -0.144082
v 1.267358 -0.901545 -0.166958
v 1.529381 -0.005204 0.105214
v 1.305224 -0.913323 0.112378
v 1.717223 -0.062105 0.307893
v 2.254364 0.841482 0.185118
v 2.011699 0.914493 0.309151
v 2.216497 0.853260 -0.094218
v 1.950429 0.933551 -0.142824
v 1.823857 0.971395 0.106472
v 2.099564 1.726912 0.115483
v 1.856899 1.799924 0.239516
v 2.061697 1.738691 -0.163853
v 1.795629 1.818981 -0.212459
v 1.669057 1.856825 0.036837
v 1.639828 2.230678 0.013498
vt 0.521746 0.324164
vt 0.750000 0.490000
vt 0.750000 0.490000
vt 0.521746 0.324164
vt 0.608932 0.055836
vt 0.608932 0.055836
vt 0.891068 0.055836
vt 0.891068 0.055836
vt 0.978254 0.324164
vt 0.978254 0.324164
vt 0.978254 0.324164
vt 0.750000 0.490000
vt 0.891068 0.055836
vt 0.891068 0.055836
vt 0.978254 0.324164
vt 0.521746 0.324164
vt 0.608932 0.055836
vt 0.750000 0.490000
vt 0.608932 0.055836
vt 0.521746 0.324164
vt 0.000000 0.000000
vt 0.000000 0.000000
vt 0.000000 0.000000
vn -0.3355 0.3621 -0.8696
vn -0.7646 0.6312 0.1303
vn -0.1653 0.0486 0.9850
vn 0.5946 -0.4383 -0.6741
vn 0.6880 -0.2066 -0.6957
vn 0.6702 -0.6035 0.4319
vn 0.2887 0.9574 0.0012
vn 0.8870 0.1882 0.4218
vn -0.9480 0.2857 0.1406
vn -0.4206 0.1280 -0.8982
vn 0.8458 -0.2556 0.4682
vn -0.2887 -0.9574 -0.0012
vn -0.9789 -0.1612 0.1259
vn 0.7420 0.0773 -0.6659
vn -0.4858 -0.1526 -0.8606
vn -0.7355 -0.0152 0.6774
vn 0.5015 0.5865 0.6360
vn 0.7440 0.6642 -0.0728
vn 0.3069 0.5446 -0.7806
vn -0.8933 -0.0972 -0.4388
usemtl None
s off
f 9/1/1 1/2/1 10/3/1 2/4/1
f 7/5/2 9/1/2 2/4/2 4/6/2
f 5/7/3 7/5/3 4/6/3 6/8/3
f 1/2/4 3/9/4 8/10/4 10/3/4
f 10/3/5 8/10/5 15/11/5 12/12/5
f 3/9/6 5/7/6 6/8/6 8/10/6
f 1/2/7 9/1/7 7/5/7 5/7/7 3/9/7
f 15/11/8 14/13/8 19/14/8 20/15/8
f 4/6/9 2/4/9 11/16/9 13/17/9
f 2/4/10 10/3/10 12/12/10 11/16/10
f 8/10/11 6/8/11 14/13/11 15/11/11
f 6/8/3 4/6/3 13/17/3 14/13/3
f 17/18/12 20/15/12 19/14/12 18/19/12 16/20/12
f 13/17/13 11/16/13 16/20/13 18/19/13
f 12/12/14 15/11/14 20/15/14 17/18/14
f 14/13/3 13/17/3 18/19/3 19/14/3
f 11/16/15 12/12/15 17/18/15 16/20/15
f 21/21/16 20/15/16 17/18/16
f 21/21/17 17/18/17 16/20/17
f 16/20/18 18/19/18 21/21/18
f 18/19/19 19/14/19 21/21/19
f 21/21/20 19/22/20 20/23/20
o Cylinder.002
v 1.062559 -0.840311 -0.963589
v 1.959888 -0.135117 -1.016141
v 0.874717 -0.783410 -1.166268
v 1.922022 -0.123339 -1.295477
v 1.001290 -0.821254 -1.415564
v 1.655954 -0.043048 -1.344082
v 1.267358 -0.901545 -1.366958
v 1.529381 -0.005204 -1.094786
v 1.305224 -0.913323 -1.087622
v 1.717223 -0.062105 -0.892107
v 2.254364 0.841482 -1.014882
v 2.011699 0.914493 -0.890849
v 2.216497 0.853260 -1.294218
v 1.950429 0.933551 -1.342824
v 1.823857 0.971395 -1.093528
v 2.069681 1.015024 -1.144105
v 1.898444 1.155014 -1.060815
v 2.253918 1.126079 -1.074829
vt 0.521746 0.324164
vt 0.521746 0.324164
vt 0.750000 0.490000
vt 0.750000 0.490000
vt 0.608932 0.055836
vt 0.608932 0.055836
vt 0.891068 0.055836
vt 0.891068 0.055836
vt 0.978254 0.324164
vt 0.978254 0.324164
vt 0.750000 0.490000
vt 0.978254 0.324164
vt 0.000000 0.000000
vt 0.000000 0.000000
vt 0.000000 0.000000
vt 0.608932 0.055836
vt 0.521746 0.324164
vt 0.891068 0.055836
vt 0.000000 0.000000
vn 0.3626 -0.8716 0.3298
vn 0.7687 -0.4381 0.4661
vn -0.1653 0.0486 0.9850
vn -0.2946 -0.4741 0.8298
vn 0.3078 -0.7860 -0.5361
vn 0.6390 -0.3171 -0.7008
vn -0.4740 -0.2404 -0.8471
vn -0.3708 0.2383 -0.8976
vn -0.8714 0.4683 0.1462
vn -0.9868 0.0536 0.1530
vn -0.0834 0.4392 0.8945
vn -0.8218 0.5240 0.2236
vn 0.2391 -0.2636 0.9345
vn 0.6471 0.2915 -0.7044
vn 0.8852 -0.0808 0.4582
vn -0.1888 0.6436 -0.7417
vn 0.4612 0.8839 0.0777
vn 0.0390 0.9686 -0.2454
vn -0.0091 0.5742 0.8186
usemtl None
s 1
f 30/24/21 23/25/22 31/26/23 22/27/24
f 28/28/25 25/29/26 23/25/22 30/24/21
f 26/30/27 27/31/28 25/29/26 28/28/25
f 22/27/24 31/26/23 29/32/29 24/33/30
f 31/26/23 33/34/31 36/35/32 29/32/29
f 24/33/30 29/32/29 27/31/28 26/30/27
f 22/27/24 24/33/30 26/30/27 28/28/25 30/24/21
f 38/36/33 36/37/33 37/38/33
f 25/29/26 34/39/34 32/40/35 23/25/22
f 23/25/22 32/40/35 33/34/31 31/26/23
f 29/32/29 36/35/32 35/41/36 27/31/28
f 27/31/28 35/41/36 34/39/34 25/29/26
f 39/42/37 37/38/38 33/34/31
f 37/38/38 38/36/39 33/34/31
f 36/37/32 33/34/31 38/36/39
f 36/37/32 37/38/38 35/41/36
f 33/34/31 32/40/35 39/42/37
f 37/38/38 39/42/37 34/39/34
f 32/40/35 34/39/34 39/42/37
f 34/39/34 35/41/36 37/38/38
o Cylinder.003
v -1.215992 -0.230803 -1.440000
v -1.589012 0.836257 -1.274164
v -0.995516 -0.289879 -1.274164
v -1.504797 0.813692 -1.005836
v -1.079731 -0.267314 -1.005836
v -1.232274 0.740669 -1.005836
v -1.352254 -0.194292 -1.005836
v -1.148059 0.718104 -1.274164
v -1.436468 -0.171726 -1.274164
v -1.368536 0.777180 -1.440000
v -1.325008 1.821531 -1.274164
v -1.104532 1.762455 -1.440000
v -1.240794 1.798966 -1.005836
v -0.968270 1.725944 -1.005836
v -0.884056 1.703378 -1.274164
v -0.721202 2.491021 -1.274164
v -0.500725 2.431945 -1.440000
v -0.636987 2.468456 -1.005836
v -0.364464 2.395434 -1.005836
v -0.280249 2.372869 -1.274164
v -0.056527 2.674717 -1.274164
vt 0.521746 0.324164
vt 0.521746 0.324164
vt 0.750000 0.490000
vt 0.750000 0.490000
vt 0.608932 0.055836
vt 0.608932 0.055836
vt 0.891068 0.055836
vt 0.891068 0.055836
vt 0.978254 0.324164
vt 0.978254 0.324164
vt 0.750000 0.490000
vt 0.978254 0.324164
vt 0.978254 0.324164
vt 0.891068 0.055836
vt 0.891068 0.055836
vt 0.608932 0.055836
vt 0.521746 0.324164
vt 0.750000 0.490000
vt 0.521746 0.324164
vt 0.608932 0.055836
vt 0.000000 0.000000
vt 0.000000 0.000000
vt 0.000000 0.000000
vn -0.6143 -0.0930 -0.7836
vn -0.9476 -0.1434 0.2854
vn -0.0000 0.0000 1.0000
vn 0.6143 0.0930 -0.7836
vn 0.5678 -0.1521 -0.8090
vn 0.9476 0.1434 0.2854
vn -0.2588 -0.9659 0.0000
vn 0.7133 -0.6433 0.2780
vn -0.9187 0.2462 0.3090
vn -0.5678 0.1521 -0.8090
vn 0.9187 -0.2462 0.3090
vn 0.2588 0.9659 0.0000
vn -0.7133 0.6433 0.2780
vn 0.4694 -0.4234 -0.7749
vn -0.4694 0.4234 -0.7749
vn 0.4946 -0.3665 -0.7881
vn -0.2185 0.7906 -0.5721
vn -0.2628 0.9511 0.1625
vn 0.1576 0.5883 0.7932
vn 0.7690 -0.5700 0.2893
usemtl None
s off
f 48/43/40 41/44/40 49/45/40 40/46/40
f 46/47/41 43/48/41 41/44/41 48/43/41
f 44/49/42 45/50/42 43/48/42 46/47/42
f 40/46/43 49/45/43 47/51/43 42/52/43
f 49/45/44 51/53/44 54/54/44 47/51/44
f 42/52/45 47/51/45 45/50/45 44/49/45
f 40/46/46 42/52/46 44/49/46 46/47/46 48/43/46
f 54/54/47 59/55/47 58/56/47 53/57/47
f 43/48/48 52/58/48 50/59/48 41/44/48
f 41/44/49 50/59/49 51/53/49 49/45/49
f 47/51/50 54/54/50 53/57/50 45/50/50
f 45/50/42 53/57/42 52/58/42 43/48/42
f 56/60/51 55/61/51 57/62/51 58/56/51 59/55/51
f 52/58/52 57/62/52 55/61/52 50/59/52
f 51/53/53 56/60/53 59/55/53 54/54/53
f 53/57/42 58/56/42 57/62/42 52/58/42
f 50/59/54 55/61/54 56/60/54 51/53/54
f 60/63/55 59/55/55 56/60/55
f 60/63/56 56/60/56 55/61/56
f 55/61/57 57/62/57 60/63/57
f 57/62/58 58/56/58 60/63/58
f 60/63/59 58/64/59 59/65/59
o Cylinder.004
v -1.215992 -0.230803 0.960000
v -1.589012 0.836257 1.125836
v -0.995516 -0.289879 1.125836
v -1.504797 0.813692 1.394164
v -1.079731 -0.267314 1.394164
v -1.232274 0.740669 1.394164
v -1.352254 -0.194292 1.394164
v -1.148059 0.718104 1.125836
v -1.436468 -0.171726 1.125836
v -1.368536 0.777180 0.960000
v -1.325008 1.821531 1.125836
v -1.104532 1.762455 0.960000
v -1.240794 1.798966 1.394164
v -0.968270 1.725944 1.394164
v -0.884056 1.703378 1.125836
v -0.944885 2.248968 1.195840
v -0.820128 2.052782 1.087177
v -1.037467 2.063575 1.464168
v -0.588147 2.153381 1.464168
v -0.503933 2.130816 1.195840
v -0.795819 2.126095 1.325729
vt 0.521746 0.324164
vt 0.521746 0.324164
vt 0.750000 0.490000
vt 0.750000 0.490000
vt 0.608932 0.055836
vt 0.608932 0.055836
vt 0.891068 0.055836
vt 0.891068 0.055836
vt 0.978254 0.324164
vt 0.978254 0.324164
vt 0.750000 0.490000
vt 0.978254 0.324164
vt 0.978254 0.324164
vt 0.891068 0.055836
vt 0.891068 0.055836
vt 0.608932 0.055836
vt 0.521746 0.324164
vt 0.608932 0.055836
vt 0.521746 0.324164
vt 0.750000 0.490000
vt 0.000000 0.000000
vn -0.6143 -0.0930 -0.7836
vn -0.9476 -0.1434 0.2854
vn 0.0000 0.0000 1.0000
vn 0.6143 0.0930 -0.7836
vn 0.5678 -0.1521 -0.8090
vn 0.9476 0.1434 0.2854
vn -0.2588 -0.9659 0.0000
vn 0.6959 -0.6638 0.2742
vn -0.9187 0.2462 0.3090
vn -0.5678 0.1521 -0.8090
vn 0.9186 -0.2462 0.3090
vn -0.7672 0.6020 0.2213
vn 0.4530 -0.1795 -0.8733
vn 0.0047 -0.2021 0.9794
vn -0.2885 0.4927 -0.8210
vn -0.1950 0.9757 0.1002
vn -0.0618 0.9928 -0.1029
vn 0.7403 0.6177 -0.2653
vn 0.1355 0.7927 0.5944
vn -0.1391 0.9505 -0.2779
usemtl None
s off
f 69/66/60 62/67/60 70/68/60 61/69/60
f 67/70/61 64/71/61 62/67/61 69/66/61
f 65/72/62 66/73/62 64/71/62 67/70/62
f 61/69/63 70/68/63 68/74/63 63/75/63
f 70/68/64 72/76/64 75/77/64 68/74/64
f 63/75/65 68/74/65 66/73/65 65/72/65
f 61/69/66 63/75/66 65/72/66 67/70/66 69/66/66
f 75/77/67 80/78/67 79/79/67 74/80/67
f 64/71/68 73/81/68 71/82/68 62/67/68
f 62/67/69 71/82/69 72/76/69 70/68/69
f 68/74/70 75/77/70 74/80/70 66/73/70
f 66/73/62 74/80/62 73/81/62 64/71/62
f 73/81/71 78/83/71 76/84/71 71/82/71
f 72/76/72 77/85/72 80/78/72 75/77/72
f 74/80/73 79/79/73 78/83/73 73/81/73
f 71/82/74 76/84/74 77/85/74 72/76/74
f 78/83/75 79/79/75 81/86/75
f 79/79/76 80/78/76 81/86/76
f 77/85/77 76/84/77 81/86/77
f 76/84/78 78/83/78 81/86/78
f 77/85/79 81/86/79 80/78/79
o Cylinder.005
v 1.062559 -0.840311 1.436411
v 1.959888 -0.135117 1.383860
v 0.874717 -0.783410 1.233732
v 1.922022 -0.123339 1.104523
v 1.001290 -0.821254 0.984436
v 1.655954 -0.043048 1.055918
v 1.267358 -0.901545 1.033042
v 1.529381 -0.005204 1.305214
v 1.305224 -0.913323 1.312378
v 1.717223 -0.062105 1.507893
v 2.254364 0.841482 1.385118
v 2.011699 0.914493 1.509151
v 2.216497 0.853260 1.105782
v 1.950429 0.933551 1.057176
v 1.823857 0.971395 1.306472
v 2.099564 1.726912 1.315483
v 1.856899 1.799924 1.439516
v 2.061697 1.738691 1.036147
v 1.795629 1.818981 0.987541
v 1.669057 1.856825 1.236837
v 1.639828 2.230678 1.213498
vt 0.521746 0.324164
vt 0.521746 0.324164
vt 0.750000 0.490000
vt 0.750000 0.490000
vt 0.608932 0.055836
vt 0.608932 0.055836
vt 0.891068 0.055836
vt 0.891068 0.055836
vt 0.978254 0.324164
vt 0.978254 0.324164
vt 0.750000 0.490000
vt 0.978254 0.324164
vt 0.978254 0.324164
vt 0.891068 0.055836
vt 0.891068 0.055836
vt 0.608932 0.055836
vt 0.521746 0.324164
vt 0.750000 0.490000
vt 0.521746 0.324164
vt 0.608932 0.055836
vt 0.000000 0.000000
vt 0.000000 0.000000
vt 0.000000 0.000000
vn 0.3355 -0.3621 0.8696
vn 0.7646 -0.6312 -0.1303
vn 0.1653 -0.0486 -0.9850
vn -0.5946 0.4383 0.6741
vn -0.6880 0.2066 0.6957
vn -0.6702 0.6035 -0.4319
vn -0.2887 -0.9574 -0.0012
vn -0.8870 -0.1882 -0.4218
vn 0.9480 -0.2857 -0.1406
vn 0.4206 -0.1280 0.8982
vn -0.8458 0.2556 -0.4682
vn 0.2887 0.9574 0.0012
vn 0.9789 0.1612 -0.1259
vn -0.7420 -0.0773 0.6659
vn 0.4858 0.1526 0.8606
vn -0.7355 -0.0152 0.6774
vn 0.5015 0.5865 0.6360
vn 0.7440 0.6642 -0.0728
vn 0.3069 0.5446 -0.7806
vn -0.8933 -0.0972 -0.4388
usemtl None
s off
f 90/87/80 83/88/80 91/89/80 82/90/80
f 88/91/81 85/92/81 83/88/81 90/87/81
f 86/93/82 87/94/82 85/92/82 88/91/82
f 82/90/83 91/89/83 89/95/83 84/96/83
f 91/89/84 93/97/84 96/98/84 89/95/84
f 84/96/85 89/95/85 87/94/85 86/93/85
f 82/90/86 84/96/86 86/93/86 88/91/86 90/87/86
f 96/98/87 101/99/87 100/100/87 95/101/87
f 85/92/88 94/102/88 92/103/88 83/88/88
f 83/88/89 92/103/89 93/97/89 91/89/89
f 89/95/90 96/98/90 95/101/90 87/94/90
f 87/94/82 95/101/82 94/102/82 85/92/82
f 98/104/91 97/105/91 99/106/91 100/100/91 101/99/91
f 94/102/92 99/106/92 97/105/92 92/103/92
f 93/97/93 98/104/93 101/99/93 96/98/93
f 95/101/82 100/100/82 99/106/82 94/102/82
f 92/103/94 97/105/94 98/104/94 93/97/94
f 102/107/95 101/99/95 98/104/95
f 102/107/96 98/104/96 97/105/96
f 97/105/97 99/106/97 102/107/97
f 99/106/98 100/100/98 102/107/98
f 102/107/99 100/108/99 101/109/99
