# Blender v3.3.1 OBJ File: 'artifact3.blend'
# www.blender.org
mtllib artifact3.blend.mtl
o Plane
v 0.222589 0.009192 0.614314
v -0.019134 -0.230593 -0.293312
v -1.404413 2.953150 -0.770466
v -1.842228 2.067739 0.118817
v -1.051701 0.250894 0.391112
v -1.350961 3.314623 -0.332776
v -0.069167 2.744663 -0.512076
v 0.721361 0.927818 -0.239782
v 0.230093 -0.319066 0.211812
v -1.163709 3.195276 0.136809
v -1.670064 2.247370 -0.452821
v -0.742810 0.116289 -0.133432
v -1.454125 2.465379 0.368563
v -0.526188 0.332731 0.688188
v -0.404869 2.913508 -0.027989
v 0.559706 0.696655 0.304255
v -0.631954 2.707461 -0.823292
v 0.341206 0.470879 -0.488091
vt 0.000000 0.000000
vt 0.000000 0.000000
vt 0.000000 0.000000
vt 0.000000 0.000000
vt 0.000000 0.000000
vt 0.000000 0.000000
vt 0.000000 0.000000
vt 0.000000 0.000000
vt 0.000000 0.000000
vt 0.000000 0.000000
vt 0.000000 0.000000
vt 0.000000 0.000000
vt 0.000000 0.000000
vt 0.000000 0.000000
vt 0.000000 0.000000
vt 0.000000 0.000000
vt 0.000000 0.000000
vt 0.000000 0.000000
vn -0.8261 -0.4164 -0.3797
vn -0.4813 -0.0786 0.8730
vn -0.3331 -0.2799 -0.9004
vn 0.1922 0.2267 0.9548
vn 0.8091 0.4145 0.4165
vn 0.4786 0.0771 -0.8747
vn -0.1307 -0.2023 -0.9706
vn 0.2982 0.2671 0.9164
vn 0.3869 0.9220 0.0124
vn 0.2355 0.7641 -0.6006
vn -0.9398 0.2995 -0.1645
vn -0.7723 0.4577 0.4406
vn -0.2497 -0.7433 0.6206
vn 0.9268 -0.3188 0.1983
vn -0.4134 -0.9104 0.0168
vn 0.7753 -0.4764 -0.4146
usemtl None
s off
f 4/1/1 11/2/1 12/3/1 5/4/1
f 5/4/2 14/5/2 13/6/2 4/1/2
f 11/2/3 3/7/3 2/8/3 12/3/3
f 14/5/4 1/9/4 10/10/4 13/6/4
f 8/11/5 7/12/5 15/13/5 16/14/5
f 7/12/6 8/11/6 18/15/6 17/16/6
f 3/7/7 17/16/7 18/15/7 2/8/7
f 10/10/8 1/9/8 16/14/8 15/13/8
f 7/12/9 6/17/9 10/10/9 15/13/9
f 7/12/10 17/16/10 3/7/10 6/17/10
f 11/2/11 4/1/11 6/17/11 3/7/11
f 6/17/12 4/1/12 13/6/12 10/10/12
f 5/4/13 9/18/13 1/9/13 14/5/13
f 8/11/14 16/14/14 1/9/14 9/18/14
f 12/3/15 2/8/15 9/18/15 5/4/15
f 8/11/16 9/18/16 2/8/16 18/15/16
