# Blender v3.3.1 OBJ File: 'artifact2.blend'
# www.blender.org
mtllib artifact2.blend.mtl
o Plane
v -1.113346 -0.737387 0.671089
v 0.862956 -0.977534 0.479884
v -1.221883 -0.118749 -1.227728
v 0.754419 -0.358896 -1.418934
v -0.265875 1.262855 0.642358
v 0.524646 1.166796 0.565875
v -0.309290 1.510310 -0.117169
v 0.481231 1.414251 -0.193651
v -0.122304 2.206203 0.941495
v 0.668216 2.110144 0.865013
v -0.165719 2.453658 0.181969
v 0.624802 2.357599 0.105486
v -0.283427 4.002059 2.041376
v 1.455719 3.790730 1.873115
v -0.378939 4.546460 0.370417
v 1.360207 4.335131 0.202156
vt 0.000000 0.000000
vt 0.000000 1.000000
vt 1.000000 1.000000
vt 1.000000 0.000000
vt 1.000000 1.000000
vt 1.000000 0.000000
vt 0.000000 0.000000
vt 0.000000 1.000000
vt 1.000000 1.000000
vt 0.000000 1.000000
vt 0.000000 1.000000
vt 1.000000 1.000000
vt 0.000000 0.000000
vt 1.000000 0.000000
vt 0.000000 0.000000
vt 1.000000 0.000000
vn -0.1436 -0.9433 -0.2991
vn 0.9877 0.1561 -0.0056
vn -0.9052 0.3861 0.1775
vn -0.0107 0.5673 -0.8234
vn 0.0932 -0.0252 0.9953
vn -0.0863 0.0806 -0.9930
vn 0.1436 0.9433 0.2991
vn 0.0193 -0.5209 0.8534
vn 0.9274 -0.3369 -0.1628
vn -0.9944 -0.1034 0.0232
usemtl None
s off
f 1/1/1 3/2/1 4/3/1 2/4/1
f 2/4/2 4/3/2 8/5/2 6/6/2
f 3/2/3 1/1/3 5/7/3 7/8/3
f 4/3/4 3/2/4 7/8/4 8/5/4
f 1/1/5 2/4/5 6/6/5 5/7/5
f 12/9/6 11/10/6 15/11/6 16/12/6
f 13/13/7 14/14/7 16/12/7 15/11/7
f 9/15/8 10/16/8 14/14/8 13/13/8
f 10/16/9 12/9/9 16/12/9 14/14/9
f 11/10/10 9/15/10 13/13/10 15/11/10
o Icosphere
v 0.035893 0.866880 0.074784
v 0.858819 1.138841 0.670091
v -0.111694 1.158408 1.074179
v -0.768572 1.495744 0.325653
v -0.204021 1.684652 -0.541048
v 0.801759 1.464074 -0.328165
v 0.562947 1.935802 1.288893
v -0.442832 2.156380 1.076009
v -0.499893 2.481613 0.077753
v 0.470621 2.462046 -0.326335
v 1.127499 2.124710 0.422191
v 0.323034 2.753574 0.673060
v -0.076062 0.872613 0.609690
v 0.494387 0.861112 0.372175
v 0.407641 1.032468 0.959606
v 0.944552 1.212135 0.135330
v 0.460848 1.052278 -0.214581
v -0.462166 1.070893 0.169721
v -0.548918 1.242250 0.757149
v -0.130330 1.181929 -0.339709
v -0.603186 1.551567 -0.192254
v 0.319833 1.532953 -0.576560
v 1.136022 1.600447 0.576377
v 1.102483 1.791614 -0.010381
v 0.233732 1.500908 1.323331
v 0.804188 1.489405 1.085816
v -0.743556 1.828840 0.758225
v -0.357454 1.630560 1.198204
v -0.445262 2.131049 -0.337971
v -0.777095 2.020007 0.171467
v 0.716380 1.989894 -0.450359
v 0.125195 2.119546 -0.575487
v 0.962113 2.068887 0.940098
v 0.039093 2.087501 1.324404
v -0.585625 2.408319 0.612514
v -0.048714 2.587986 -0.211762
v 0.907845 2.378204 -0.009305
v 0.489257 2.438525 1.087554
v 0.821092 2.549561 0.578123
v -0.101921 2.568176 0.962425
v -0.135460 2.759342 0.375669
v 0.434989 2.747841 0.138154
vt 0.181819 0.000000
vt 0.227273 0.078731
vt 0.136365 0.078731
vt 0.272728 0.157461
vt 0.318182 0.078731
vt 0.363637 0.157461
vt 0.909091 0.000000
vt 0.954545 0.078731
vt 0.863636 0.078731
vt 0.727273 0.000000
vt 0.772727 0.078731
vt 0.681818 0.078731
vt 0.545455 0.000000
vt 0.590909 0.078731
vt 0.500000 0.078731
vt 0.318182 0.236191
vt 0.090910 0.157461
vt 0.181819 0.157461
vt 0.136365 0.236191
vt 0.818182 0.157461
vt 0.909091 0.157461
vt 0.863636 0.236191
vt 0.636364 0.157461
vt 0.727273 0.157461
vt 0.681818 0.236191
vt 0.454546 0.157461
vt 0.545455 0.157461
vt 0.500000 0.236191
vt 0.227273 0.236191
vt 0.045455 0.236191
vt 0.772727 0.236191
vt 0.590909 0.236191
vt 0.409092 0.236191
vt 0.181819 0.314921
vt 0.272728 0.314921
vt 0.227273 0.393651
vt 0.000000 0.314921
vt 0.090910 0.314921
vt 0.045455 0.393651
vt 0.727273 0.314921
vt 0.818182 0.314921
vt 0.772727 0.393651
vt 0.545455 0.314921
vt 0.636364 0.314921
vt 0.590909 0.393651
vt 0.363637 0.314921
vt 0.454546 0.314921
vt 0.409092 0.393651
vt 0.500000 0.393651
vt 0.454546 0.472382
vt 0.681818 0.393651
vt 0.636364 0.472382
vt 0.863636 0.393651
vt 0.818182 0.472382
vt 0.909091 0.314921
vt 0.136365 0.393651
vt 0.090910 0.472382
vt 0.318182 0.393651
vt 0.272728 0.472382
vt 0.954545 0.236191
vt 1.000000 0.157461
vt 0.409092 0.078731
vt 0.363637 0.000000
vn -0.0172 -0.9998 0.0071
vn 0.6115 -0.7912 -0.0104
vn -0.3898 -0.9181 -0.0717
vn -0.4109 -0.7977 -0.4415
vn -0.0514 -0.8049 -0.5912
vn 0.8614 -0.5032 0.0691
vn 0.0282 -0.6065 0.7946
vn -0.9095 -0.3023 0.2854
vn -0.6559 -0.0111 -0.7548
vn 0.4386 -0.1352 -0.8884
vn 0.8067 -0.3953 0.4393
vn -0.2698 -0.3735 0.8875
vn -0.9984 0.0006 0.0573
vn -0.3722 0.2101 -0.9041
vn 0.7434 -0.0345 -0.6679
vn 0.5332 0.3807 0.7555
vn -0.3391 0.5004 0.7966
vn -0.6115 0.7912 0.0104
vn 0.0924 0.8512 -0.5166
vn 0.7999 0.5975 -0.0562
vn 0.3898 0.9181 0.0717
vn 0.5800 0.8010 -0.1480
vn 0.4650 0.7695 -0.4378
vn 0.0172 0.9998 -0.0071
vn -0.1026 0.9507 -0.2925
vn -0.4024 0.8612 -0.3106
vn -0.1919 0.9299 0.3139
vn -0.4858 0.8225 0.2957
vn -0.5824 0.6254 0.5194
vn 0.0514 0.8049 0.5912
vn -0.0400 0.5936 0.8038
vn 0.1737 0.3880 0.9052
vn 0.4109 0.7977 0.4415
vn 0.6188 0.5803 0.5295
vn 0.8210 0.4770 0.3136
vn 0.9095 0.3023 -0.2854
vn 0.7808 0.2601 -0.5680
vn 0.5746 0.4743 -0.6670
vn -0.0282 0.6065 -0.7946
vn -0.3237 0.5024 -0.8018
vn -0.5230 0.6165 -0.5886
vn -0.8614 0.5032 -0.0691
vn -0.9437 0.2949 0.1500
vn -0.8323 0.3374 0.4398
vn -0.4386 0.1352 0.8884
vn -0.2223 -0.0755 0.9720
vn 0.0742 0.0228 0.9970
vn 0.6559 0.0111 0.7548
vn 0.8435 -0.0970 0.5283
vn 0.9437 0.1074 0.3129
vn 0.2698 0.3735 -0.8875
vn 0.2223 0.0755 -0.9720
vn -0.0742 -0.0228 -0.9970
vn -0.8067 0.3953 -0.4393
vn -0.8435 0.0970 -0.5283
vn -0.9437 -0.1074 -0.3129
vn -0.7434 0.0345 0.6679
vn -0.7808 -0.2601 0.5680
vn -0.5746 -0.4743 0.6670
vn 0.3722 -0.2101 0.9041
vn 0.3237 -0.5024 0.8018
vn 0.5230 -0.6165 0.5886
vn 0.9984 -0.0006 -0.0573
vn 0.9437 -0.2949 -0.1500
vn 0.8323 -0.3374 -0.4398
vn 0.3391 -0.5004 -0.7966
vn 0.0400 -0.5936 -0.8038
vn -0.1737 -0.3880 -0.9052
vn -0.5332 -0.3807 -0.7555
vn -0.6188 -0.5803 -0.5295
vn -0.8210 -0.4770 -0.3136
vn -0.7999 -0.5975 0.0562
vn -0.5800 -0.8010 0.1480
vn -0.4650 -0.7695 0.4378
vn 0.5824 -0.6254 -0.5194
vn 0.4858 -0.8225 -0.2957
vn 0.1919 -0.9299 -0.3139
vn -0.0924 -0.8512 0.5166
vn 0.1026 -0.9507 0.2925
vn 0.4024 -0.8612 0.3106
usemtl None
s off
f 17/17/11 30/18/11 29/19/11
f 18/20/12 30/21/12 32/22/12
f 17/23/13 29/24/13 34/25/13
f 17/26/14 34/27/14 36/28/14
f 17/29/15 36/30/15 33/31/15
f 18/20/16 32/22/16 39/32/16
f 19/33/17 31/34/17 41/35/17
f 20/36/18 35/37/18 43/38/18
f 21/39/19 37/40/19 45/41/19
f 22/42/20 38/43/20 47/44/20
f 18/20/21 39/32/21 42/45/21
f 19/33/22 41/35/22 44/46/22
f 20/36/23 43/38/23 46/47/23
f 21/39/24 45/41/24 48/48/24
f 22/42/25 47/44/25 40/49/25
f 23/50/26 49/51/26 54/52/26
f 24/53/27 50/54/27 56/55/27
f 25/56/28 51/57/28 57/58/28
f 26/59/29 52/60/29 58/61/29
f 27/62/30 53/63/30 55/64/30
f 55/64/31 58/65/31 28/66/31
f 55/64/32 53/63/32 58/65/32
f 53/63/33 26/59/33 58/65/33
f 58/61/34 57/67/34 28/68/34
f 58/61/35 52/60/35 57/67/35
f 52/60/36 25/56/36 57/67/36
f 57/58/37 56/69/37 28/70/37
f 57/58/38 51/57/38 56/69/38
f 51/57/39 24/71/39 56/69/39
f 56/55/40 54/72/40 28/73/40
f 56/55/41 50/54/41 54/72/41
f 50/54/42 23/50/42 54/72/42
f 54/52/43 55/74/43 28/75/43
f 54/52/44 49/51/44 55/74/44
f 49/51/45 27/62/45 55/74/45
f 40/49/46 53/63/46 27/62/46
f 40/49/47 47/44/47 53/63/47
f 47/44/48 26/59/48 53/63/48
f 48/48/49 52/60/49 26/59/49
f 48/48/50 45/41/50 52/60/50
f 45/41/51 25/56/51 52/60/51
f 46/47/52 51/57/52 25/56/52
f 46/47/53 43/38/53 51/57/53
f 43/38/54 24/71/54 51/57/54
f 44/46/55 50/54/55 24/53/55
f 44/46/56 41/35/56 50/54/56
f 41/35/57 23/50/57 50/54/57
f 42/45/58 49/51/58 23/50/58
f 42/45/59 39/32/59 49/51/59
f 39/32/60 27/62/60 49/51/60
f 47/44/61 48/48/61 26/59/61
f 47/44/62 38/43/62 48/48/62
f 38/43/63 21/39/63 48/48/63
f 45/41/64 46/47/64 25/56/64
f 45/41/65 37/40/65 46/47/65
f 37/40/66 20/36/66 46/47/66
f 43/38/67 44/76/67 24/71/67
f 43/38/68 35/37/68 44/76/68
f 35/37/69 19/77/69 44/76/69
f 41/35/70 42/45/70 23/50/70
f 41/35/71 31/34/71 42/45/71
f 31/34/72 18/20/72 42/45/72
f 39/32/73 40/49/73 27/62/73
f 39/32/74 32/22/74 40/49/74
f 32/22/75 22/42/75 40/49/75
f 33/31/76 38/43/76 22/42/76
f 33/31/77 36/30/77 38/43/77
f 36/30/78 21/39/78 38/43/78
f 36/28/79 37/40/79 21/39/79
f 36/28/80 34/27/80 37/40/80
f 34/27/81 20/36/81 37/40/81
f 34/25/82 35/37/82 20/36/82
f 34/25/83 29/24/83 35/37/83
f 29/24/84 19/77/84 35/37/84
f 32/22/85 33/78/85 22/42/85
f 32/22/86 30/21/86 33/78/86
f 30/21/87 17/79/87 33/78/87
f 29/19/88 31/34/88 19/33/88
f 29/19/89 30/18/89 31/34/89
f 30/18/90 18/20/90 31/34/90
